#!OML:ASF F:\VICON\USERDATA\INSTALL\rory3\rory3.ASF
:FULLY-SPECIFIED
:DEGREES
110
root 1.1026 17.8122 -10.7832 -4.39899 -1.6306 2.31032
lowerback 11.7829 -0.034547 -3.2096
upperback 0.574442 -0.432524 0.691786
thorax -5.98323 -0.115178 2.61292
lowerneck -16.2508 -2.44028 -1.97865
upperneck 19.5581 -3.07204 0.886046
head 8.84832 -1.49682 0.25001
rclavicle 1.16165e-014 1.19271e-014
rhumerus -33.2708 -17.0626 -78.3301
rradius 26.7765
rwrist 2.35818
rhand -14.254 17.0099
rfingers 7.12502
rthumb 11.8842 -12.6329
lclavicle 1.16165e-014 1.19271e-014
lhumerus -33.2868 -2.7254 80.086
lradius 28.2554
lwrist 5.56367
lhand -26.5444 27.0753
lfingers 7.12502
lthumb 0.0199411 57.055
rfemur -30.7224 -2.25523 20.6789
rtibia 58.3462
rfoot -11.2655 -7.83452
rtoes -5.03045
lfemur -1.53759 -2.1423 -28.1353
ltibia 28.4478
lfoot -18.2924 -2.73447
ltoes 6.28632
111
root 1.09421 17.8131 -10.6058 -4.30854 -1.48961 2.34217
lowerback 11.6405 -0.133359 -3.30444
upperback 0.634506 -0.568964 0.72082
thorax -5.82934 -0.183071 2.71735
lowerneck -16.3398 -2.47884 -1.91032
upperneck 19.345 -3.09812 0.706404
head 8.78767 -1.5233 0.174763
rclavicle 9.60378e-015 -3.57812e-015
rhumerus -33.3523 -16.9531 -78.3264
rradius 27.5241
rwrist 4.46907
rhand -16.3662 28.2682
rfingers 7.12502
rthumb 9.84686 -1.48157
lclavicle 9.60378e-015 -3.57812e-015
lhumerus -32.7084 -3.13749 79.924
lradius 28.4888
lwrist 5.89292
lhand -26.4656 26.9985
lfingers 7.12502
lthumb 0.0960711 56.9782
rfemur -31.0894 -2.23825 20.746
rtibia 55.9581
rfoot -11.1665 -8.10468
rtoes -3.26231
lfemur -0.56421 -1.81609 -28.2101
ltibia 27.8507
lfoot -18.4658 -2.24447
ltoes 3.91051
112
root 1.08555 17.8192 -10.4312 -4.19959 -1.44072 2.28801
lowerback 11.5176 -0.222802 -3.29158
upperback 0.67065 -0.678228 0.77398
thorax -5.71398 -0.239261 2.78163
lowerneck -16.4795 -2.42665 -1.99382
upperneck 19.3889 -3.00171 0.707306
head 8.82818 -1.48342 0.198822
rclavicle -2.16178e-015 -1.19271e-014
rhumerus -33.3893 -16.5153 -78.5553
rradius 26.619
rwrist 1.86835
rhand -15.1687 21.8026
rfingers 7.12502
rthumb 11.0021 -7.88913
lclavicle -2.16178e-015 -1.19271e-014
lhumerus -32.2539 -3.40686 79.7109
lradius 28.9134
lwrist 5.82165
lhand -26.1034 28.621
lfingers 7.12502
lthumb 0.445852 58.6003
rfemur -31.3826 -2.14426 20.9425
rtibia 53.3982
rfoot -10.914 -8.7644
rtoes -3.54435
lfemur 0.46605 -1.49753 -28.2054
ltibia 27.2411
lfoot -18.7988 -1.84079
ltoes 1.13331
113
root 1.07989 17.8281 -10.2545 -3.98078 -1.21325 2.41924
lowerback 11.298 -0.324204 -3.44891
upperback 0.642279 -0.827214 0.752688
thorax -5.60845 -0.310566 2.86857
lowerneck -16.6259 -2.34891 -1.98735
upperneck 19.5718 -2.90523 0.753786
head 8.91665 -1.43178 0.222893
rclavicle 8.19987e-016 1.03368e-014
rhumerus -33.606 -16.6662 -78.4632
rradius 26.5406
rwrist 2.09185
rhand -14.2046 18.6795
rfingers 7.12502
rthumb 11.9318 -10.9604
lclavicle 8.19987e-016 1.03368e-014
lhumerus -31.9032 -3.51909 79.3101
lradius 29.6544
lwrist 4.82465
lhand -24.8497 30.6658
lfingers 7.12502
lthumb 1.65673 60.6391
rfemur -31.7448 -2.23775 20.8926
rtibia 50.7315
rfoot -11.5091 -9.32486
rtoes -1.49756
lfemur 1.24308 -1.50741 -28.4323
ltibia 26.6152
lfoot -19.0632 -1.86763
ltoes 1.42048
114
root 1.07509 17.8247 -10.0795 -3.72787 -0.972802 2.64473
lowerback 11.1403 -0.407823 -3.65144
upperback 0.612168 -0.962589 0.684322
thorax -5.53986 -0.373946 2.92971
lowerneck -17.0958 -2.32501 -1.91679
upperneck 19.8707 -2.88242 0.744692
head 9.10345 -1.41417 0.204133
rclavicle -5.19325e-015 -1.59028e-015
rhumerus -33.7344 -16.9834 -78.3479
rradius 26.1662
rwrist 2.15246
rhand -14.9609 23.0002
rfingers 7.12502
rthumb 11.2025 -6.68069
lclavicle -5.19325e-015 -1.59028e-015
lhumerus -31.4034 -3.76768 79.0558
lradius 30.0143
lwrist 5.30415
lhand -25.3648 28.1933
lfingers 7.12502
lthumb 1.15922 58.1699
rfemur -32.085 -2.28231 20.7054
rtibia 47.9836
rfoot -10.8465 -9.81317
rtoes -2.44835
lfemur 1.90094 -1.56847 -28.7296
ltibia 25.8301
lfoot -19.091 -2.3253
ltoes 3.59451
115
root 1.06857 17.8211 -9.90432 -3.53062 -0.781189 2.56873
lowerback 11.1753 -0.485827 -3.58784
upperback 0.478232 -1.05758 0.7524
thorax -5.6934 -0.415943 2.98266
lowerneck -17.3237 -2.32685 -1.96976
upperneck 20.1141 -2.85761 0.697552
head 9.22919 -1.41065 0.196056
rclavicle 6.32384e-015 -3.18055e-015
rhumerus -34.0533 -17.1711 -78.0417
rradius 26.9841
rwrist 4.83879
rhand -13.8674 25.2527
rfingers 7.12502
rthumb 12.257 -4.36813
lclavicle 6.32384e-015 -3.18055e-015
lhumerus -31.115 -4.32191 79.0008
lradius 30.4103
lwrist 6.36933
lhand -25.6962 28.0907
lfingers 7.12502
lthumb 0.839119 58.0688
rfemur -32.1882 -2.15567 20.7848
rtibia 45.0951
rfoot -10.7044 -10.3157
rtoes -1.25009
lfemur 2.72216 -1.40554 -28.6414
ltibia 24.8654
lfoot -18.657 -2.50292
ltoes 2.98097
116
root 1.05713 17.8308 -9.72727 -3.3476 -0.480105 2.62754
lowerback 11.15 -0.604224 -3.79095
upperback 0.324885 -1.23684 0.84357
thorax -5.82142 -0.491992 3.22339
lowerneck -17.2018 -2.31064 -2.01565
upperneck 20.1366 -2.79006 0.545102
head 9.21226 -1.40047 0.161346
rclavicle 1.85118e-015 -1.11319e-014
rhumerus -34.5187 -16.7486 -78.0033
rradius 26.3785
rwrist 2.49805
rhand -11.1712 30.8822
rfingers 7.12502
rthumb 14.8556 1.43474
lclavicle 1.85118e-015 -1.11319e-014
lhumerus -30.99 -4.68611 79.0005
lradius 30.8207
lwrist 7.39687
lhand -26.1145 28.2155
lfingers 7.12502
lthumb 0.435199 58.1948
rfemur -32.1272 -1.93908 20.6372
rtibia 42.0911
rfoot -11.0008 -10.9426
rtoes 2.16915
lfemur 3.59938 -1.29886 -28.69
ltibia 23.9423
lfoot -18.2893 -2.23152
ltoes 0.809244
117
root 1.04502 17.8474 -9.55216 -3.15447 -0.114061 2.69782
lowerback 10.9775 -0.777894 -3.96993
upperback 0.26324 -1.48155 0.894568
thorax -5.76377 -0.607172 3.41283
lowerneck -16.9229 -2.28808 -1.9892
upperneck 19.7994 -2.73152 0.381852
head 9.0411 -1.3904 0.113766
rclavicle -1.69712e-014 6.36111e-015
rhumerus -34.7757 -16.5898 -77.9571
rradius 26.535
rwrist 2.51445
rhand -14.6191 30.2953
rfingers 7.12502
rthumb 11.5321 0.632555
lclavicle -1.69712e-014 6.36111e-015
lhumerus -30.5758 -4.74801 78.7372
lradius 31.0079
lwrist 7.43892
lhand -25.6678 28.6929
lfingers 7.12502
lthumb 0.866551 58.6709
rfemur -32.0083 -1.6178 20.435
rtibia 38.9732
rfoot -11.2306 -11.8423
rtoes 2.42052
lfemur 4.55015 -1.4005 -28.748
ltibia 23.0879
lfoot -18.625 -2.11024
ltoes 1.05262
118
root 1.03172 17.8448 -9.3757 -3.00892 0.25842 2.71692
lowerback 10.8202 -0.909061 -4.03154
upperback 0.321201 -1.65448 0.922655
thorax -5.59656 -0.695622 3.49767
lowerneck -16.945 -2.33808 -2.05569
upperneck 19.5969 -2.78169 0.387503
head 8.97716 -1.41797 0.121228
rclavicle 3.52594e-014 -7.95139e-016
rhumerus -34.8001 -16.874 -77.7911
rradius 26.2428
rwrist 2.68723
rhand -15.7957 30.1059
rfingers 7.12502
rthumb 10.3973 0.382923
lclavicle 3.52594e-014 -7.95139e-016
lhumerus -29.7199 -4.8364 78.4315
lradius 30.9256
lwrist 7.19818
lhand -25.9752 27.2949
lfingers 7.12502
lthumb 0.56973 57.2739
rfemur -31.8146 -1.29414 20.2749
rtibia 35.8226
rfoot -11.3648 -12.5784
rtoes 0.394807
lfemur 5.58071 -1.37433 -28.7017
ltibia 22.2408
lfoot -18.5836 -2.3371
ltoes -0.333094
119
root 1.01751 17.8308 -9.1941 -2.83685 0.493636 2.90679
lowerback 10.6614 -0.941735 -4.24642
upperback 0.394314 -1.7199 0.857541
thorax -5.42038 -0.729137 3.55381
lowerneck -17.246 -2.44039 -2.06744
upperneck 19.6003 -2.92224 0.429279
head 9.03561 -1.4787 0.115869
rclavicle 1.04362e-014 -3.57812e-015
rhumerus -34.7212 -17.2907 -77.728
rradius 26.8227
rwrist 5.09032
rhand -15.3184 25.8791
rfingers 7.12502
rthumb 10.8577 -3.82018
lclavicle 1.04362e-014 -3.57812e-015
lhumerus -28.8728 -5.09424 78.1581
lradius 30.9513
lwrist 7.36694
lhand -27.3139 23.5021
lfingers 7.12502
lthumb -0.723282 53.4806
rfemur -31.643 -0.729167 19.8584
rtibia 32.6795
rfoot -12.2094 -13.118
rtoes 1.62758
lfemur 6.45958 -1.36142 -28.8257
ltibia 21.4646
lfoot -18.5673 -2.69963
ltoes -0.299932
120
root 1.00763 17.822 -9.0073 -2.61867 0.754366 3.05701
lowerback 10.4589 -1.05562 -4.43535
upperback 0.31776 -1.88492 0.886893
thorax -5.36564 -0.805577 3.71035
lowerneck -17.2802 -2.46626 -2.2808
upperneck 19.6324 -2.92004 0.519833
head 9.05808 -1.4836 0.181546
rclavicle -8.27441e-015 7.15625e-015
rhumerus -34.9502 -17.1745 -77.6447
rradius 26.1698
rwrist 3.71873
rhand -14.553 24.9722
rfingers 7.12502
rthumb 11.5959 -4.68697
lclavicle -8.27441e-015 7.15625e-015
lhumerus -28.607 -5.14001 77.9877
lradius 31.3198
lwrist 7.55135
lhand -27.9996 23.7524
lfingers 7.12502
lthumb -1.38549 53.7276
rfemur -31.4035 0.0746482 19.3116
rtibia 29.5803
rfoot -12.1763 -13.6716
rtoes 0.736672
lfemur 7.26425 -1.31945 -28.8861
ltibia 20.7439
lfoot -18.4057 -2.71436
ltoes -0.560124
